<svg xmlns="http://www.w3.org/2000/svg" shape-rendering="geometricPrecision" text-rendering="geometricPrecision" image-rendering="optimizeQuality" fill-rule="evenodd" clip-rule="evenodd" viewBox="0 0 512 509.64"><path d="M115.613 0h280.774C459.974 0 512 52.026 512 115.612v278.415c0 63.588-52.026 115.613-115.613 115.613H287.015V332.805h69.253l14.365-78.229h-83.618v-27.667c0-41.341 16.218-57.241 58.194-57.241 13.04 0 23.533.317 29.576.953V99.706c-11.448-3.18-39.434-6.361-55.651-6.361-85.545 0-124.977 40.388-124.977 127.522v33.709h-52.79v78.229h52.79V509.64h-78.544C52.026 509.64 0 457.615 0 394.027V115.612C0 52.026 52.026 0 115.613 0z"/></svg>