<svg data-name="Warstwa 1" id="e505ad44-4387-4abc-aafb-9d476a259d06" viewBox="0 0 1984.25 170.08" xmlns="http://www.w3.org/2000/svg" role="img" aria-labelledby="logotypy-ue"><title id="logotypy-ue">Logotyp Fundusze Europejskie dla Małopolski, flaga Rzeczypospolitej Polskiej, flaga Unii Europejskiej z podpisem Dofinansowane przez Unię Europejską oraz logotyp Województwa Małopolskiego.</title><defs><style type="text/css">
<!--/*-->/* &gt;&lt;!--*/
.b6876b69-a0ee-4866-a403-8d8b79afc110 { fill: none; } .b3e44c17-76bf-4715-a74c-c81f05ac95ae { fill: #fff; } .ba9b035e-b69f-4f09-a163-85b71a22f1b6 { fill: #bb1732; } .b4d878fb-e17b-45b1-80d9-fe47f110cd35 { fill: #808184; } .a88a6db2-4b4a-42db-9846-15f0ae6162f5 { fill: #1d1d1b; } .abebd308-85dc-49ca-b5db-8e14deaac672 { fill: #2d2d2b; } .a5983561-c5db-4712-80b3-33ebf5d364ad { fill: #00b0ea; } .a3a5e700-9934-45ce-a01b-c90e4d71cd47 { fill: #4565ac; } .b5d7f603-77a3-4002-984e-d71b5ed3ae11 { fill: #e5007e; } .a148adce-86c7-4545-944a-85701d2ada0b { fill: #93c01f; } .b586bf85-4c56-476d-91b5-60a678d044d9 { fill: #5c2482; } .b47cc575-f6d2-48fd-bda0-f718ffa14580 { fill: #009a3e; } .b3b06581-4b44-4acf-97eb-30b0d4c3be01 { fill: #384f86; } .fa25f60d-1b5b-45ad-8bd0-4d10605d62a2 { fill: #fcc200; } .eeb2d078-84f7-4c5b-bef2-f20cd69179d1 { fill: #039; } .af0d8335-220a-47db-9e38-895dbc2f1fd8 { fill: #fc0; } .bb0cb463-8f32-4805-bcb7-1aa4f521d549 { fill: #e21d2c; }

/*--&gt;&lt;!*/
</style></defs><rect class="b6876b69-a0ee-4866-a403-8d8b79afc110" height="170.08" width="1984.25"></rect><g><g><path d="M614.78,93.31a12,12,0,0,0-1.65.39l.37,2.41a8.71,8.71,0,0,1,1.4-.34,11.18,11.18,0,0,1,1.9-.15,3.46,3.46,0,0,1,1.26.2,2,2,0,0,1,.82.55,2.22,2.22,0,0,1,.43.82,4,4,0,0,1,.12,1v.49a9.15,9.15,0,0,0-2.19-.27,9.57,9.57,0,0,0-2,.21,5,5,0,0,0-1.71.69,3.56,3.56,0,0,0-1.17,1.24,3.83,3.83,0,0,0-.43,1.87,4.47,4.47,0,0,0,.38,1.94,3.34,3.34,0,0,0,1.06,1.28,4.47,4.47,0,0,0,1.64.72,9.84,9.84,0,0,0,2.11.22,21.17,21.17,0,0,0,3.14-.21c.93-.14,1.62-.26,2.08-.36V98.2a7.93,7.93,0,0,0-.26-2.07,3.89,3.89,0,0,0-.86-1.62,4,4,0,0,0-1.61-1,7.22,7.22,0,0,0-2.49-.37,13,13,0,0,0-2.31.2m.76,10.49a1.89,1.89,0,0,1-.42-2.36,1.68,1.68,0,0,1,.66-.55,2.85,2.85,0,0,1,.91-.28,7.39,7.39,0,0,1,2,0,6,6,0,0,1,.71.15v3.3a10.91,10.91,0,0,1-2.09.15,3.48,3.48,0,0,1-1.8-.41m-13-16.59-3,.49v18.6h3v-5.91a11.15,11.15,0,0,1,1.36,1.2c.46.46.91,1,1.35,1.48s.86,1.07,1.24,1.63.73,1.09,1,1.6H611a20.8,20.8,0,0,0-1.11-1.82c-.44-.66-.91-1.32-1.42-2s-1-1.28-1.57-1.86a17.49,17.49,0,0,0-1.55-1.49c.92-.93,1.83-1.89,2.74-2.87s1.77-1.94,2.59-2.86h-3.52l-.95,1.1L605,95.83l-1.25,1.35-1.21,1.27Zm-12.8,16.7a12.73,12.73,0,0,1-1.58-.52l-.52,2.49a13.48,13.48,0,0,0,1.45.45,10.58,10.58,0,0,0,2.73.29,6.81,6.81,0,0,0,3.9-1,3.18,3.18,0,0,0,1.37-2.79,4.57,4.57,0,0,0-.22-1.48,3,3,0,0,0-.71-1.09,4.57,4.57,0,0,0-1.21-.86,14.59,14.59,0,0,0-1.8-.78,11.54,11.54,0,0,1-1.08-.43,3.69,3.69,0,0,1-.71-.42,1.12,1.12,0,0,1-.38-.45,1.32,1.32,0,0,1-.12-.57,1,1,0,0,1,.57-1,3.16,3.16,0,0,1,1.48-.3,7.78,7.78,0,0,1,1.77.18,6.78,6.78,0,0,1,1.25.41l.54-2.41a9.35,9.35,0,0,0-1.55-.41,10.84,10.84,0,0,0-2.16-.21,5.58,5.58,0,0,0-3.54,1,3.35,3.35,0,0,0-1.31,2.79,3.71,3.71,0,0,0,.29,1.54,3,3,0,0,0,.77,1.07,5.3,5.3,0,0,0,1.17.78,13.13,13.13,0,0,0,1.49.62,8.91,8.91,0,0,1,1.9.91,1.26,1.26,0,0,1,.58,1.06,1,1,0,0,1-.54,1,3.86,3.86,0,0,1-1.72.29,8.42,8.42,0,0,1-2.11-.25m-3.89.17a4.9,4.9,0,0,1-1-.21,1.34,1.34,0,0,1-.91-1,3.94,3.94,0,0,1-.08-.91V87.21l-3,.49v14.81a6.35,6.35,0,0,0,.21,1.71,2.73,2.73,0,0,0,.72,1.25,3.4,3.4,0,0,0,1.39.78,8,8,0,0,0,2.21.29Zm-11.43-1.15a2.91,2.91,0,0,1-4.6,0,5.14,5.14,0,0,1-.83-3.08,5,5,0,0,1,.83-3,2.92,2.92,0,0,1,4.6,0,5,5,0,0,1,.82,3,5.14,5.14,0,0,1-.82,3.08m3.42-5.85A6.51,6.51,0,0,0,576.6,95a5.51,5.51,0,0,0-2-1.37,6.44,6.44,0,0,0-2.5-.48,6.35,6.35,0,0,0-2.49.48A5.7,5.7,0,0,0,567.71,95a6.2,6.2,0,0,0-1.28,2.12,8.6,8.6,0,0,0,0,5.55,6.22,6.22,0,0,0,1.26,2.14,5.77,5.77,0,0,0,1.95,1.38,6.18,6.18,0,0,0,2.51.49,6.26,6.26,0,0,0,2.52-.49,5.67,5.67,0,0,0,2-1.38,6.07,6.07,0,0,0,1.26-2.14,8.87,8.87,0,0,0,0-5.55m-19.08-5.19a4.23,4.23,0,0,1,1.34.46,2.26,2.26,0,0,1,.88.88,2.78,2.78,0,0,1,.32,1.41,2.43,2.43,0,0,1-1.2,2.37,7.58,7.58,0,0,1-3.45.63h-1.5V91.83c.51,0,1.16-.07,2-.07a9.72,9.72,0,0,1,1.66.13m-4.31-2.73a16,16,0,0,0-2.39.33V106.3h3.09v-6h1.55a15.81,15.81,0,0,0,3.33-.32,7.28,7.28,0,0,0,2.45-1,4.4,4.4,0,0,0,1.54-1.75,5.64,5.64,0,0,0,.53-2.57,4.76,4.76,0,0,0-2-4.23,10.07,10.07,0,0,0-5.69-1.35c-.74,0-1.55,0-2.43.08" transform="translate(0 0)"></path><path d="M711.8,65a13.37,13.37,0,0,0-1.65.4l.37,2.41a8.6,8.6,0,0,1,1.4-.35,12.36,12.36,0,0,1,1.9-.14,3.48,3.48,0,0,1,1.26.19,2.13,2.13,0,0,1,.82.56,2.22,2.22,0,0,1,.43.82,4,4,0,0,1,.12,1v.49a9.15,9.15,0,0,0-2.19-.27,9.57,9.57,0,0,0-2,.21,5,5,0,0,0-1.71.68,3.68,3.68,0,0,0-1.17,1.25,3.72,3.72,0,0,0-.43,1.87A4.47,4.47,0,0,0,709.3,76a3.41,3.41,0,0,0,1.06,1.28A4.3,4.3,0,0,0,712,78a9.24,9.24,0,0,0,2.11.22,22.72,22.72,0,0,0,3.14-.2c.93-.14,1.62-.26,2.08-.36v-7.8a8,8,0,0,0-.26-2.08,3.85,3.85,0,0,0-.86-1.61,3.93,3.93,0,0,0-1.61-1,7.22,7.22,0,0,0-2.49-.37,13,13,0,0,0-2.31.19m.76,10.5a1.91,1.91,0,0,1-.42-2.37,1.77,1.77,0,0,1,.66-.55,3.12,3.12,0,0,1,.91-.27,7.39,7.39,0,0,1,2,0,5.54,5.54,0,0,1,.71.15v3.29a10.91,10.91,0,0,1-2.09.15,3.46,3.46,0,0,1-1.8-.4m-13.08-2.62a10.34,10.34,0,0,0,.22,2.27,4.27,4.27,0,0,0,.76,1.7,3.42,3.42,0,0,0,1.46,1.07,6.16,6.16,0,0,0,2.3.37,7.56,7.56,0,0,0,2-.23,11.76,11.76,0,0,0,1.36-.46l-.5-2.36c-.24.1-.58.2-1,.32a5.69,5.69,0,0,1-1.44.17,2,2,0,0,1-1.68-.66,3.9,3.9,0,0,1-.49-2.22V67.57H707V65.09h-4.58V61.2l-3,.49ZM695.94,60a1.81,1.81,0,0,0-1.28-.49,1.86,1.86,0,0,0-1.3.49,1.74,1.74,0,0,0-.54,1.35,1.71,1.71,0,0,0,.54,1.33,1.87,1.87,0,0,0,1.3.5,1.82,1.82,0,0,0,1.28-.5,1.72,1.72,0,0,0,.55-1.33,1.75,1.75,0,0,0-.55-1.35m.23,5.12h-3V78h3Zm-5.39,10.65a5,5,0,0,1-1-.21,1.42,1.42,0,0,1-.6-.39,1.37,1.37,0,0,1-.3-.63,3.94,3.94,0,0,1-.09-.91V58.86l-3,.5V74.17a6.41,6.41,0,0,0,.21,1.71,2.71,2.71,0,0,0,.73,1.25,3.43,3.43,0,0,0,1.39.77,8.16,8.16,0,0,0,2.2.3Zm-11.49-1.16a2.91,2.91,0,0,1-4.6,0,5.11,5.11,0,0,1-.83-3.07,5,5,0,0,1,.83-3,2.92,2.92,0,0,1,4.6,0,5,5,0,0,1,.82,3,5.11,5.11,0,0,1-.82,3.07m3.42-5.84a6.45,6.45,0,0,0-1.27-2.13,5.49,5.49,0,0,0-2-1.36,6.44,6.44,0,0,0-2.5-.48,6.35,6.35,0,0,0-2.49.48,5.67,5.67,0,0,0-2,1.36,6.15,6.15,0,0,0-1.28,2.13,7.85,7.85,0,0,0-.46,2.77,8,8,0,0,0,.46,2.78,6.24,6.24,0,0,0,1.27,2.14,5.63,5.63,0,0,0,1.94,1.38,6.35,6.35,0,0,0,2.51.49,6.43,6.43,0,0,0,2.52-.49,5.71,5.71,0,0,0,2-1.38,6,6,0,0,0,1.25-2.14,8.44,8.44,0,0,0,.44-2.78,8.09,8.09,0,0,0-.45-2.77m-14.43,0a5.7,5.7,0,0,0-3.35-3.46,7.59,7.59,0,0,0-2.73-.46,16.85,16.85,0,0,0-2.81.22c-.88.15-1.63.3-2.24.47v17h3v-5a6,6,0,0,0,1.25.49,5.94,5.94,0,0,0,1.68.22,5.69,5.69,0,0,0,2.42-.49,4.84,4.84,0,0,0,1.78-1.37,6.36,6.36,0,0,0,1.1-2.12,9.24,9.24,0,0,0,.38-2.71,7.93,7.93,0,0,0-.46-2.79m-3.34,5.82a2.66,2.66,0,0,1-2.37,1.11,3.94,3.94,0,0,1-1.39-.24,4.3,4.3,0,0,1-1-.5V67.57a5.47,5.47,0,0,1,.9-.16l.87,0a3.5,3.5,0,0,1,2.89,1.1,4.79,4.79,0,0,1,.9,3.1,5.24,5.24,0,0,1-.75,3m-17.61,1a14.66,14.66,0,0,1-1.58-.52l-.52,2.49c.28.11.76.26,1.45.45a10.64,10.64,0,0,0,2.73.28,6.81,6.81,0,0,0,3.9-.94,3.17,3.17,0,0,0,1.36-2.79,4.31,4.31,0,0,0-.22-1.48,3,3,0,0,0-.7-1.1,4.88,4.88,0,0,0-1.22-.86,17.07,17.07,0,0,0-1.79-.77,10.53,10.53,0,0,1-1.08-.43,3.81,3.81,0,0,1-.72-.42,1.25,1.25,0,0,1-.38-.46,1.4,1.4,0,0,1-.11-.56,1,1,0,0,1,.57-.95,3.11,3.11,0,0,1,1.47-.31,7.61,7.61,0,0,1,1.77.19,7.87,7.87,0,0,1,1.26.4l.54-2.41a11.09,11.09,0,0,0-1.55-.4,10.84,10.84,0,0,0-2.16-.21,5.61,5.61,0,0,0-3.55,1,3.34,3.34,0,0,0-1.3,2.79,3.72,3.72,0,0,0,.28,1.54,3.21,3.21,0,0,0,.78,1.07,4.85,4.85,0,0,0,1.17.77,13.72,13.72,0,0,0,1.48.63,8.57,8.57,0,0,1,1.91.91,1.25,1.25,0,0,1,.58,1.06,1,1,0,0,1-.54,1,3.93,3.93,0,0,1-1.73.28,8.42,8.42,0,0,1-2.1-.24m-7.73-1a2.91,2.91,0,0,1-4.6,0,5.11,5.11,0,0,1-.82-3.07,5,5,0,0,1,.82-3,2.92,2.92,0,0,1,4.6,0,5,5,0,0,1,.83,3,5.11,5.11,0,0,1-.83,3.07M643,68.74a6.27,6.27,0,0,0-1.26-2.13,5.62,5.62,0,0,0-2-1.36,6.4,6.4,0,0,0-2.5-.48,6.27,6.27,0,0,0-2.48.48,5.62,5.62,0,0,0-2,1.36,6.31,6.31,0,0,0-1.28,2.13,8.09,8.09,0,0,0-.45,2.77,8.19,8.19,0,0,0,.45,2.78,6.4,6.4,0,0,0,1.27,2.14,5.73,5.73,0,0,0,1.94,1.38,6.7,6.7,0,0,0,5,0,5.62,5.62,0,0,0,2-1.38A6,6,0,0,0,643,74.29a8.19,8.19,0,0,0,.45-2.78,7.85,7.85,0,0,0-.46-2.77m-14.42,0a5.87,5.87,0,0,0-1.3-2.11,5.81,5.81,0,0,0-2.06-1.35,7.51,7.51,0,0,0-2.73-.46,16.73,16.73,0,0,0-2.8.22,21.9,21.9,0,0,0-2.24.47v17h3v-5a6.34,6.34,0,0,0,2.93.71,5.69,5.69,0,0,0,2.42-.49,4.87,4.87,0,0,0,1.79-1.37,6.35,6.35,0,0,0,1.09-2.12,8.92,8.92,0,0,0,.38-2.71,8.16,8.16,0,0,0-.45-2.79m-3.35,5.82a2.66,2.66,0,0,1-2.37,1.11,4,4,0,0,1-1.39-.24,4.69,4.69,0,0,1-1-.5V67.57a5.67,5.67,0,0,1,.9-.16l.88,0a3.51,3.51,0,0,1,2.89,1.1,4.85,4.85,0,0,1,.9,3.1,5.24,5.24,0,0,1-.76,3m-10.44-9.47H605v2.48H611c-.44.53-1,1.14-1.51,1.85s-1.14,1.44-1.71,2.22-1.13,1.56-1.67,2.33a21.09,21.09,0,0,0-1.36,2.14V78H615V75.47h-6.65c.5-.76,1.05-1.55,1.66-2.38s1.23-1.62,1.84-2.38,1.17-1.46,1.71-2.08,1-1.11,1.29-1.45Zm-21.48,9.14a5.89,5.89,0,0,0,1.19,2.14,5.67,5.67,0,0,0,2,1.4,7.4,7.4,0,0,0,2.87.5,10.64,10.64,0,0,0,2.05-.19,5.94,5.94,0,0,0,1.49-.45l-.42-2.46a6.31,6.31,0,0,1-1.28.37,7.48,7.48,0,0,1-1.5.15,3.42,3.42,0,0,1-2.9-1.12,4.84,4.84,0,0,1-.86-3,4.66,4.66,0,0,1,.91-3.08,3.24,3.24,0,0,1,2.65-1.1,6.11,6.11,0,0,1,1.39.15,6.45,6.45,0,0,1,1.17.37l.64-2.44a9,9,0,0,0-3.44-.66,6.64,6.64,0,0,0-2.66.51,5.94,5.94,0,0,0-2,1.43,6.51,6.51,0,0,0-1.27,2.15,7.79,7.79,0,0,0-.44,2.67,9,9,0,0,0,.39,2.7m-11-4a5.36,5.36,0,0,1,.27-1.1,3,3,0,0,1,.55-1,2.77,2.77,0,0,1,.87-.68,2.73,2.73,0,0,1,1.21-.26,2.52,2.52,0,0,1,1.14.24,2.43,2.43,0,0,1,.82.64,2.74,2.74,0,0,1,.5,1,4,4,0,0,1,.17,1.16Zm-2.71,4a5.46,5.46,0,0,0,3.27,3.52,7.84,7.84,0,0,0,3,.5,11.2,11.2,0,0,0,1.3-.07c.43,0,.82-.11,1.19-.18s.7-.16,1-.25a5,5,0,0,0,.67-.26l-.39-2.43a9.1,9.1,0,0,1-1.42.41,8.62,8.62,0,0,1-2,.2,4.11,4.11,0,0,1-2.81-.85,3.36,3.36,0,0,1-1.1-2.4h8.49c0-.16,0-.35,0-.55s0-.39,0-.55a7.15,7.15,0,0,0-1.49-4.92,5.29,5.29,0,0,0-4.15-1.65,5.87,5.87,0,0,0-2.21.43,5.58,5.58,0,0,0-1.92,1.28,6.31,6.31,0,0,0-1.34,2.13,8,8,0,0,0-.5,3,8.7,8.7,0,0,0,.39,2.67m-2.1-9.16h-9.77v2.48h5.93c-.45.53-.95,1.14-1.51,1.85s-1.14,1.44-1.72,2.22-1.13,1.56-1.67,2.33a22.76,22.76,0,0,0-1.35,2.14V78h10.23V75.47H571c.49-.76,1-1.55,1.66-2.38s1.23-1.62,1.83-2.38,1.18-1.46,1.71-2.08,1-1.11,1.3-1.45Zm-18.83-1.54A3.9,3.9,0,0,1,560,64a2.13,2.13,0,0,1,.85.86,2.68,2.68,0,0,1,.3,1.32,2.82,2.82,0,0,1-.3,1.38,2.12,2.12,0,0,1-.87.86,4.28,4.28,0,0,1-1.44.45,14.56,14.56,0,0,1-2,.12h-1.36V63.49c.56-.05,1.17-.08,1.83-.08a9.64,9.64,0,0,1,1.67.14m-4.18-2.73a17.31,17.31,0,0,0-2.41.33V78h3.09V71.51h2l.59,0c.31.4.65.84,1,1.34s.73,1,1.1,1.6.73,1.15,1.09,1.75.7,1.19,1,1.78h3.47c-.3-.64-.63-1.29-1-2s-.77-1.31-1.18-2-.81-1.21-1.21-1.75-.74-1-1-1.38a5.1,5.1,0,0,0,1.46-8.83,9.9,9.9,0,0,0-5.65-1.36q-1,0-2.28.09" transform="translate(0 0)"></path></g><rect class="b3e44c17-76bf-4715-a74c-c81f05ac95ae" height="42.52" width="127.22" x="403.43" y="42.69"></rect><rect class="ba9b035e-b69f-4f09-a163-85b71a22f1b6" height="42.35" width="127.22" x="403.43" y="85.04"></rect><path class="b4d878fb-e17b-45b1-80d9-fe47f110cd35" d="M530.82,42.52H403.26v85H530.82Zm-.39,84.64H403.66V42.92H530.43Z" transform="translate(0 0)"></path></g><rect class="a88a6db2-4b4a-42db-9846-15f0ae6162f5" height="85.04" width="2.83" x="1246.61" y="42.52"></rect><g><path class="abebd308-85dc-49ca-b5db-8e14deaac672" d="M1929.4,79.77l9.21,27.66h-18.34Zm15.66,46.88c.67.1,1.38.18,2.14.23s1.49.08,2.21.08,1.6,0,2.43-.08,1.59-.13,2.26-.23l-19.51-54.19c-.78-.1-1.59-.17-2.43-.22s-1.64-.08-2.42-.08-1.76,0-2.6.08-1.62.12-2.26.22l-19.59,54.19a16.87,16.87,0,0,0,2,.23c.75.05,1.52.08,2.3.08s1.45,0,2.18-.08,1.45-.13,2.18-.23l4.1-12.51h22.86Zm-54.53,0c.83.1,1.64.18,2.43.23s1.5.08,2.17.08,1.61,0,2.47-.08,1.75-.13,2.64-.23l-21.52-28.18,19.09-26c-.89-.1-1.76-.17-2.59-.22s-1.63-.08-2.35-.08-1.3,0-2,.08-1.52.12-2.3.22l-19.35,26.68Zm-32.41,0c.61.1,1.28.18,2,.23s1.47.08,2.26.08,1.45,0,2.17-.08,1.43-.13,2.1-.23V72.46c-.67-.1-1.37-.17-2.1-.22s-1.45-.08-2.17-.08-1.46,0-2.18.08-1.42.12-2.09.22Zm-44-8.21c-.45,1.11-.87,2.23-1.26,3.39a15.47,15.47,0,0,0-.75,3.39c1.17.35,2.31.68,3.43,1s2.28.55,3.48.76,2.5.35,3.89.45,3,.15,4.69.15q10.73,0,16.67-4.48a14.54,14.54,0,0,0,5.94-12.25,15.25,15.25,0,0,0-1-5.66,11.82,11.82,0,0,0-2.81-4.18A18.36,18.36,0,0,0,1842,97.9a52.49,52.49,0,0,0-6-2.52l-4.69-1.66a30.43,30.43,0,0,1-3.35-1.36,13.61,13.61,0,0,1-2.76-1.69,7.86,7.86,0,0,1-1.89-2.19,5.64,5.64,0,0,1-.71-2.83,6.48,6.48,0,0,1,2.85-5.76c1.9-1.28,4.6-1.92,8.12-1.92a34.25,34.25,0,0,1,6.74.6,44.94,44.94,0,0,1,5.24,1.35,21.88,21.88,0,0,0,1.84-6.25,45.4,45.4,0,0,0-6.37-1.51,46.34,46.34,0,0,0-7.62-.6q-9.37,0-14.57,3.88a12.67,12.67,0,0,0-5.19,10.74,13.13,13.13,0,0,0,.84,4.94,11.94,11.94,0,0,0,2.3,3.66,13.64,13.64,0,0,0,3.48,2.67,35.07,35.07,0,0,0,4.43,2l4.78,1.73c1.89.7,3.56,1.35,5,2a16.18,16.18,0,0,1,3.56,2,6.89,6.89,0,0,1,2.13,2.6,8.32,8.32,0,0,1,.72,3.62,8.06,8.06,0,0,1-3.4,6.82q-3.39,2.52-10.25,2.52a34.24,34.24,0,0,1-7.37-.68q-3-.67-5.78-1.58m-41.33,8.21h32.07a21.25,21.25,0,0,0,.25-3.39c0-.5,0-1.05,0-1.65a10.62,10.62,0,0,0-.21-1.74H1781.2V72.46c-.67-.1-1.37-.17-2.1-.22s-1.45-.08-2.17-.08-1.53,0-2.22.08-1.36.12-2,.22Zm-34.69-5.72a16.6,16.6,0,0,1-7.25-1.47,13.26,13.26,0,0,1-5.06-4.26,19.78,19.78,0,0,1-3-6.71,39.88,39.88,0,0,1,0-17.75,19.35,19.35,0,0,1,3-6.71,13.42,13.42,0,0,1,5.06-4.22,18.59,18.59,0,0,1,14.49,0,13.38,13.38,0,0,1,5.07,4.22,19.34,19.34,0,0,1,3,6.71,39.5,39.5,0,0,1,0,17.75,19.77,19.77,0,0,1-3,6.71,13.21,13.21,0,0,1-5.07,4.26,16.56,16.56,0,0,1-7.24,1.47m0,6.63a28.22,28.22,0,0,0,11.3-2.07,21.17,21.17,0,0,0,7.92-5.81,24.16,24.16,0,0,0,4.65-8.85,42.83,42.83,0,0,0,0-22.47,24.32,24.32,0,0,0-4.65-8.85,21.57,21.57,0,0,0-7.92-5.84,31.34,31.34,0,0,0-22.61,0,21.53,21.53,0,0,0-7.91,5.84,24.7,24.7,0,0,0-4.69,8.85,41.49,41.49,0,0,0,0,22.47,24.53,24.53,0,0,0,4.69,8.85,21.13,21.13,0,0,0,7.91,5.81,28.3,28.3,0,0,0,11.31,2.07m-61.52-49.14c1.56-.15,3.38-.23,5.44-.23a28.28,28.28,0,0,1,5.61.53,11.7,11.7,0,0,1,4.44,1.81,8.77,8.77,0,0,1,2.89,3.39,11.61,11.61,0,0,1,1,5.2,12,12,0,0,1-1.22,5.77,9.38,9.38,0,0,1-3.22,3.5,12.68,12.68,0,0,1-4.57,1.77,27,27,0,0,1-5.14.49c-1.29,0-2.27,0-2.94-.07s-1.45-.13-2.34-.23ZM1668,126.65a19.77,19.77,0,0,0,2.13.2l2.14,0a36.09,36.09,0,0,0,4.27-.23V107.06c1,.1,1.83.16,2.64.19s1.74,0,2.8,0a40.32,40.32,0,0,0,8.38-.86,21.26,21.26,0,0,0,7.32-3,16,16,0,0,0,5.2-5.62,17.74,17.74,0,0,0,2-8.78,17.29,17.29,0,0,0-1.84-8.4,14.92,14.92,0,0,0-5-5.39,20.75,20.75,0,0,0-7.29-2.86,44.73,44.73,0,0,0-8.75-.83c-1.17,0-2.38,0-3.64.07s-2.51.12-3.77.19-2.46.17-3.6.27-2.13.2-3,.3Zm-36.32-5.72a16.56,16.56,0,0,1-7.24-1.47,13.21,13.21,0,0,1-5.07-4.26,19.77,19.77,0,0,1-3-6.71,39.5,39.5,0,0,1,0-17.75,19.34,19.34,0,0,1,3-6.71,13.38,13.38,0,0,1,5.07-4.22,18.59,18.59,0,0,1,14.49,0A13.42,13.42,0,0,1,1644,84a19.35,19.35,0,0,1,3,6.71,39.88,39.88,0,0,1,0,17.75,19.78,19.78,0,0,1-3,6.71,13.26,13.26,0,0,1-5.06,4.26,16.63,16.63,0,0,1-7.25,1.47m0,6.63a28.27,28.27,0,0,0,11.31-2.07,21.13,21.13,0,0,0,7.91-5.81,24,24,0,0,0,4.65-8.85,42.55,42.55,0,0,0,0-22.47,24.17,24.17,0,0,0-4.65-8.85,21.53,21.53,0,0,0-7.91-5.84,31.34,31.34,0,0,0-22.61,0,21.48,21.48,0,0,0-7.92,5.84,24.7,24.7,0,0,0-4.69,8.85,41.49,41.49,0,0,0,0,22.47,24.53,24.53,0,0,0,4.69,8.85,21.09,21.09,0,0,0,7.92,5.81,28.25,28.25,0,0,0,11.3,2.07m-62.3-.91h32.07a15.27,15.27,0,0,0,.25-1.69c0-.58.08-1.14.08-1.7s0-1.05-.08-1.66a15.32,15.32,0,0,0-.25-1.73h-23.62V101.63l11-6.78c.12-.55.21-1.11.3-1.66a12.09,12.09,0,0,0,.12-1.74,14.28,14.28,0,0,0-.42-3.38l-11,6.78V72.46a36.17,36.17,0,0,0-4.18-.22,35.63,35.63,0,0,0-4.27.22V100.2l-5.36,3.32a8.69,8.69,0,0,0-.38,1.65,11.37,11.37,0,0,0-.13,1.66,9.48,9.48,0,0,0,.13,1.66c.08.5.21,1.11.38,1.81.89-.55,1.78-1.12,2.68-1.7s1.78-1.14,2.68-1.69ZM1534.3,79.77l9.21,27.66h-18.34ZM1550,126.65c.67.1,1.38.18,2.13.23s1.5.08,2.22.08,1.59,0,2.43-.08,1.59-.13,2.26-.23l-19.51-54.19c-.78-.1-1.59-.17-2.43-.22s-1.65-.08-2.43-.08-1.75,0-2.59.08-1.62.12-2.35.22l-19.59,54.19c.61.1,1.29.18,2.05.23s1.52.08,2.3.08,1.45,0,2.18-.08,1.45-.13,2.18-.23l4.1-12.51h22.86ZM1449.05,72.46c.67-.1,1.43-.17,2.3-.22s1.69-.08,2.47-.08,1.63,0,2.55.08a22.75,22.75,0,0,1,2.31.22l15.57,33.92,15.67-33.92a18.21,18.21,0,0,1,2.09-.22c.83,0,1.64-.08,2.43-.08s1.53,0,2.43.08a22.48,22.48,0,0,1,2.26.22l2.84,54.19c-.67.1-1.35.18-2,.23s-1.41.08-2.14.08-1.43,0-2.13-.08-1.35-.13-2-.23l-1.92-42.13L1477,115.42a24.24,24.24,0,0,1-3.44.23,21.26,21.26,0,0,1-3.18-.23L1456.17,84.3l-1.93,42.35c-.62.1-1.26.18-1.93.23s-1.31.08-1.92.08-1.43,0-2.1-.08-1.31-.13-1.92-.23Z" transform="translate(0 0)"></path><polygon class="a5983561-c5db-4712-80b3-33ebf5d364ad" points="1379.59 42.52 1369.19 96.78 1363.58 126.02 1374.71 126.02 1386.53 64.37 1390.66 42.52 1379.59 42.52"></polygon><polygon class="a3a5e700-9934-45ce-a01b-c90e4d71cd47" points="1363.55 66.94 1350.72 66.94 1356 94.87 1361.88 126.02 1363.58 126.02 1374.71 126.02 1369.19 96.78 1363.55 66.94"></polygon><polygon class="b5d7f603-77a3-4002-984e-d71b5ed3ae11" points="1349.02 66.94 1333.06 126.02 1347.58 126.02 1356 94.87 1363.55 66.94 1350.72 66.94 1349.02 66.94"></polygon><polygon class="a148adce-86c7-4545-944a-85701d2ada0b" points="1386.53 64.37 1401.36 126.02 1410.8 126.02 1390.72 42.52 1381.28 42.52 1386.53 64.37"></polygon><polygon class="b586bf85-4c56-476d-91b5-60a678d044d9" points="1350.72 66.94 1356 94.87 1363.55 66.94 1350.72 66.94"></polygon><polygon class="b47cc575-f6d2-48fd-bda0-f718ffa14580" points="1381.28 42.52 1386.53 64.37 1390.72 42.52 1381.28 42.52"></polygon><polygon class="b3b06581-4b44-4acf-97eb-30b0d4c3be01" points="1363.59 126.02 1374.71 126.02 1374.71 126.02 1369.19 96.78 1363.59 126.02"></polygon><polygon class="fa25f60d-1b5b-45ad-8bd0-4d10605d62a2" points="1410.8 126.02 1418.62 126.02 1418.62 89.01 1410.8 126.02"></polygon></g><g><g><path d="M105.68,81.5v-17h10.77v2.63h-7.67v4.36h6.81v2.63h-6.81V81.5Z" transform="translate(0 0)"></path><path d="M128.92,81.11c-.57.14-1.32.3-2.24.45a17.53,17.53,0,0,1-3,.24,6.59,6.59,0,0,1-2.6-.45,4.12,4.12,0,0,1-1.67-1.23,4.77,4.77,0,0,1-.9-1.88,10,10,0,0,1-.27-2.4V68.63h3v6.74a5.48,5.48,0,0,0,.6,3,2.35,2.35,0,0,0,2.1.88c.36,0,.75,0,1.15,0A5.79,5.79,0,0,0,126,79V68.63h3Z" transform="translate(0 0)"></path><path d="M132.29,69.05a19.6,19.6,0,0,1,2.24-.46,19,19,0,0,1,3.05-.23,7.13,7.13,0,0,1,2.63.43A4.11,4.11,0,0,1,141.9,70a4.57,4.57,0,0,1,.88,1.87,10,10,0,0,1,.26,2.4V81.5h-3V74.74a9.72,9.72,0,0,0-.14-1.76,3.13,3.13,0,0,0-.44-1.18,1.79,1.79,0,0,0-.84-.67,3.48,3.48,0,0,0-1.29-.21,9.75,9.75,0,0,0-1.18.08l-.91.12V81.5h-3Z" transform="translate(0 0)"></path><path d="M157.24,81.11a18.84,18.84,0,0,1-2.23.49,17.06,17.06,0,0,1-2.82.22,7.59,7.59,0,0,1-2.73-.47A5.66,5.66,0,0,1,147.41,80a6,6,0,0,1-1.31-2.11,8.18,8.18,0,0,1-.45-2.8,9.54,9.54,0,0,1,.38-2.76,6,6,0,0,1,1.12-2.13,5,5,0,0,1,1.79-1.37,5.87,5.87,0,0,1,2.44-.48,5.53,5.53,0,0,1,1.65.23,7.16,7.16,0,0,1,1.23.49V62.9l3-.49ZM148.7,75a4.71,4.71,0,0,0,.93,3.09,3.22,3.22,0,0,0,2.59,1.12,10.37,10.37,0,0,0,1.21-.06c.34-.05.62-.09.83-.14V71.66a4.3,4.3,0,0,0-1-.5,4,4,0,0,0-1.39-.24A2.66,2.66,0,0,0,149.45,72,5.29,5.29,0,0,0,148.7,75Z" transform="translate(0 0)"></path><path d="M171.18,81.11c-.57.14-1.32.3-2.24.45a17.53,17.53,0,0,1-3,.24,6.62,6.62,0,0,1-2.6-.45,4.12,4.12,0,0,1-1.67-1.23,4.77,4.77,0,0,1-.9-1.88,10,10,0,0,1-.27-2.4V68.63h3v6.74a5.48,5.48,0,0,0,.6,3,2.35,2.35,0,0,0,2.1.88c.36,0,.75,0,1.15,0a5.79,5.79,0,0,0,.9-.12V68.63h3Z" transform="translate(0 0)"></path><path d="M178,79.36a3.91,3.91,0,0,0,1.72-.28,1,1,0,0,0,.54-1,1.25,1.25,0,0,0-.58-1.06,8.45,8.45,0,0,0-1.9-.91,15.19,15.19,0,0,1-1.49-.63,5.27,5.27,0,0,1-1.17-.77,3.32,3.32,0,0,1-.78-1.07,3.92,3.92,0,0,1-.28-1.54,3.37,3.37,0,0,1,1.3-2.79,5.61,5.61,0,0,1,3.55-1,10.84,10.84,0,0,1,2.16.21,10.48,10.48,0,0,1,1.55.41L182,71.34a8,8,0,0,0-1.25-.41,7.78,7.78,0,0,0-1.77-.18,3,3,0,0,0-1.48.31A1,1,0,0,0,177,72a1.41,1.41,0,0,0,.11.57,1.26,1.26,0,0,0,.39.46,3.71,3.71,0,0,0,.71.41,8.65,8.65,0,0,0,1.08.43,19.59,19.59,0,0,1,1.8.78,4.74,4.74,0,0,1,1.21.86A3,3,0,0,1,183,76.6a4.62,4.62,0,0,1,.22,1.48,3.18,3.18,0,0,1-1.37,2.79,6.81,6.81,0,0,1-3.9.95,10.64,10.64,0,0,1-2.73-.28,12.93,12.93,0,0,1-1.45-.46l.52-2.48a12.85,12.85,0,0,0,1.58.51A8,8,0,0,0,178,79.36Z" transform="translate(0 0)"></path><path d="M194.94,70.73c-.32.34-.75.82-1.29,1.45s-1.1,1.31-1.71,2.08-1.21,1.55-1.83,2.38-1.17,1.62-1.66,2.38h6.64V81.5H184.86V79.65c.36-.65.81-1.36,1.35-2.14s1.1-1.54,1.67-2.32S189,73.67,189.59,73s1.07-1.32,1.52-1.84h-5.93V68.63h9.76Z" transform="translate(0 0)"></path><path d="M196.62,75.13a8.27,8.27,0,0,1,.5-3A6.35,6.35,0,0,1,198.46,70a5.55,5.55,0,0,1,1.92-1.27,5.9,5.9,0,0,1,2.22-.44A5.28,5.28,0,0,1,206.74,70a7.15,7.15,0,0,1,1.49,4.92c0,.17,0,.35,0,.56s0,.39,0,.55h-8.49a3.4,3.4,0,0,0,1.1,2.4,4.16,4.16,0,0,0,2.81.85,9.28,9.28,0,0,0,2-.2,8,8,0,0,0,1.42-.42l.39,2.44a5,5,0,0,1-.67.26,9,9,0,0,1-1,.24c-.37.08-.77.14-1.19.19a11.26,11.26,0,0,1-1.31.07,8,8,0,0,1-2.95-.5,5.56,5.56,0,0,1-2.06-1.41A5.74,5.74,0,0,1,197,77.8,8.7,8.7,0,0,1,196.62,75.13Zm8.63-1.33a4.09,4.09,0,0,0-.17-1.17,2.76,2.76,0,0,0-.51-1,2.42,2.42,0,0,0-.81-.64,2.66,2.66,0,0,0-1.14-.23,2.73,2.73,0,0,0-1.21.26,2.89,2.89,0,0,0-.87.67,3,3,0,0,0-.55,1,5.29,5.29,0,0,0-.27,1.11Z" transform="translate(0 0)"></path><path d="M219.08,81.5v-17H230v2.63h-7.84v4.21h7v2.58h-7v5h8.43V81.5Z" transform="translate(0 0)"></path><path d="M243.45,81.11c-.57.14-1.32.3-2.23.45a17.73,17.73,0,0,1-3,.24,6.62,6.62,0,0,1-2.6-.45,4.12,4.12,0,0,1-1.67-1.23,4.77,4.77,0,0,1-.9-1.88,10,10,0,0,1-.27-2.4V68.63h3v6.74a5.48,5.48,0,0,0,.6,3,2.37,2.37,0,0,0,2.11.88,11.36,11.36,0,0,0,1.14,0,5.79,5.79,0,0,0,.9-.12V68.63h3Z" transform="translate(0 0)"></path><path d="M254.15,71.32a7.34,7.34,0,0,0-1-.26,7.46,7.46,0,0,0-1.51-.14,6.63,6.63,0,0,0-1.05.1,7.74,7.74,0,0,0-.77.17V81.5h-3V69.25a17.16,17.16,0,0,1,2.16-.6,13.24,13.24,0,0,1,2.86-.29c.2,0,.43,0,.69,0l.79.1c.26,0,.51.09.76.15a4.7,4.7,0,0,1,.59.16Z" transform="translate(0 0)"></path><path d="M268,75.05a8.4,8.4,0,0,1-.44,2.78A6.22,6.22,0,0,1,266.28,80a5.54,5.54,0,0,1-1.95,1.38,6.34,6.34,0,0,1-2.53.49,6.16,6.16,0,0,1-2.5-.49A5.54,5.54,0,0,1,257.35,80a6.22,6.22,0,0,1-1.26-2.14,8.57,8.57,0,0,1,0-5.54,6.13,6.13,0,0,1,1.27-2.13,5.74,5.74,0,0,1,2-1.37,6.27,6.27,0,0,1,2.48-.48,6.37,6.37,0,0,1,2.5.48,5.55,5.55,0,0,1,2,1.37,6.27,6.27,0,0,1,1.26,2.13A7.84,7.84,0,0,1,268,75.05Zm-3.05,0a5,5,0,0,0-.83-3,2.92,2.92,0,0,0-4.6,0,5.07,5.07,0,0,0-.82,3,5.19,5.19,0,0,0,.82,3.08,2.91,2.91,0,0,0,4.6,0A5.12,5.12,0,0,0,264.93,75.05Z" transform="translate(0 0)"></path><path d="M282.32,75.08a9.29,9.29,0,0,1-.38,2.71,6.31,6.31,0,0,1-1.1,2.11,4.86,4.86,0,0,1-1.78,1.38,5.69,5.69,0,0,1-2.42.49,5.82,5.82,0,0,1-1.67-.22,6.51,6.51,0,0,1-1.26-.49v5h-3v-17c.61-.16,1.36-.32,2.24-.46a16.83,16.83,0,0,1,2.81-.23,7.59,7.59,0,0,1,2.73.47,5.66,5.66,0,0,1,2.05,1.34,5.93,5.93,0,0,1,1.31,2.12A8.16,8.16,0,0,1,282.32,75.08Zm-3.05,0a4.79,4.79,0,0,0-.9-3.1,3.5,3.5,0,0,0-2.89-1.11,8.71,8.71,0,0,0-.87,0,4.59,4.59,0,0,0-.9.16v7.35a4.67,4.67,0,0,0,1.05.51,4.18,4.18,0,0,0,1.39.23,2.67,2.67,0,0,0,2.37-1.1A5.24,5.24,0,0,0,279.27,75.13Z" transform="translate(0 0)"></path><path d="M284.39,75.13a8.06,8.06,0,0,1,.5-3A6.35,6.35,0,0,1,286.23,70a5.55,5.55,0,0,1,1.92-1.27,5.88,5.88,0,0,1,2.21-.44A5.31,5.31,0,0,1,294.51,70,7.15,7.15,0,0,1,296,74.88c0,.17,0,.35,0,.56s0,.39,0,.55h-8.49a3.4,3.4,0,0,0,1.1,2.4,4.16,4.16,0,0,0,2.81.85,9.35,9.35,0,0,0,2-.2,8,8,0,0,0,1.42-.42l.39,2.44a4.69,4.69,0,0,1-.68.26,8.29,8.29,0,0,1-1,.24c-.37.08-.77.14-1.19.19a11.26,11.26,0,0,1-1.31.07,8,8,0,0,1-2.95-.5,5.52,5.52,0,0,1-3.27-3.52A8.7,8.7,0,0,1,284.39,75.13ZM293,73.8a4.09,4.09,0,0,0-.17-1.17,2.76,2.76,0,0,0-.51-1,2.42,2.42,0,0,0-.81-.64,2.66,2.66,0,0,0-1.14-.23,2.73,2.73,0,0,0-1.21.26,2.89,2.89,0,0,0-.87.67,3,3,0,0,0-.55,1,4.29,4.29,0,0,0-.27,1.11Z" transform="translate(0 0)"></path><path d="M297.23,86.08c-.22,0-.52,0-.9-.07a4,4,0,0,1-1-.23l.39-2.43a4.53,4.53,0,0,0,1.31.17,1.63,1.63,0,0,0,1.45-.61,3.15,3.15,0,0,0,.41-1.8V68.63h3V81.16a5.1,5.1,0,0,1-1.19,3.71A4.64,4.64,0,0,1,297.23,86.08Zm4.94-21.21a1.71,1.71,0,0,1-.54,1.33,1.94,1.94,0,0,1-2.58,0,1.71,1.71,0,0,1-.54-1.33,1.74,1.74,0,0,1,.54-1.35,1.94,1.94,0,0,1,2.58,0A1.74,1.74,0,0,1,302.17,64.87Z" transform="translate(0 0)"></path><path d="M308.59,79.36a3.88,3.88,0,0,0,1.72-.28,1,1,0,0,0,.54-1,1.27,1.27,0,0,0-.57-1.06,8.57,8.57,0,0,0-1.91-.91c-.54-.2-1-.41-1.49-.63a5.27,5.27,0,0,1-1.17-.77,3.29,3.29,0,0,1-.77-1.07,3.75,3.75,0,0,1-.28-1.54,3.34,3.34,0,0,1,1.3-2.79,5.6,5.6,0,0,1,3.54-1,10.87,10.87,0,0,1,2.17.21,11.22,11.22,0,0,1,1.55.41l-.55,2.41a7.32,7.32,0,0,0-1.25-.41,7.78,7.78,0,0,0-1.77-.18,3,3,0,0,0-1.48.31,1,1,0,0,0-.56.94,1.26,1.26,0,0,0,.11.57,1.23,1.23,0,0,0,.38.46,4.05,4.05,0,0,0,.71.41,9.54,9.54,0,0,0,1.09.43,19.28,19.28,0,0,1,1.79.78,4.8,4.8,0,0,1,1.22.86,3,3,0,0,1,.7,1.09,4.35,4.35,0,0,1,.22,1.48,3.17,3.17,0,0,1-1.36,2.79,6.81,6.81,0,0,1-3.9.95,10.64,10.64,0,0,1-2.73-.28,13.29,13.29,0,0,1-1.46-.46l.52-2.48a12.5,12.5,0,0,0,1.59.51A7.85,7.85,0,0,0,308.59,79.36Z" transform="translate(0 0)"></path><path d="M319.27,73.65l1.2-1.26c.43-.45.85-.91,1.26-1.36l1.17-1.3c.36-.42.68-.78.94-1.1h3.52c-.82.92-1.68,1.87-2.59,2.86S323,73.43,322,74.37a16,16,0,0,1,1.55,1.48c.54.59,1.06,1.21,1.57,1.86s1,1.31,1.43,2a19.62,19.62,0,0,1,1.1,1.82h-3.44c-.3-.51-.64-1-1-1.6A19.41,19.41,0,0,0,322,78.28c-.44-.53-.89-1-1.35-1.49a10.87,10.87,0,0,0-1.35-1.19v5.9h-3V62.9l3-.49Z" transform="translate(0 0)"></path><path d="M333,64.87a1.71,1.71,0,0,1-.54,1.33,1.83,1.83,0,0,1-1.28.49,1.89,1.89,0,0,1-1.31-.49,1.71,1.71,0,0,1-.54-1.33,1.74,1.74,0,0,1,.54-1.35,1.89,1.89,0,0,1,1.31-.49,1.83,1.83,0,0,1,1.28.49A1.74,1.74,0,0,1,333,64.87Zm-.32,16.63h-3V68.63h3Z" transform="translate(0 0)"></path><path d="M335,75.13a8.27,8.27,0,0,1,.5-3A6.37,6.37,0,0,1,336.86,70a5.42,5.42,0,0,1,1.91-1.27,5.94,5.94,0,0,1,2.22-.44A5.28,5.28,0,0,1,345.13,70a7.15,7.15,0,0,1,1.49,4.92c0,.17,0,.35,0,.56s0,.39,0,.55h-8.48a3.39,3.39,0,0,0,1.09,2.4,4.2,4.2,0,0,0,2.82.85,9.35,9.35,0,0,0,2-.2,7.62,7.62,0,0,0,1.41-.42l.39,2.44a5,5,0,0,1-.67.26,9,9,0,0,1-1,.24,11.89,11.89,0,0,1-1.19.19,11.2,11.2,0,0,1-1.3.07,8,8,0,0,1-2.95-.5,5.52,5.52,0,0,1-2.07-1.41,5.88,5.88,0,0,1-1.21-2.11A8.7,8.7,0,0,1,335,75.13Zm8.63-1.33a3.76,3.76,0,0,0-.17-1.17,2.74,2.74,0,0,0-.5-1,2.42,2.42,0,0,0-.81-.64,2.94,2.94,0,0,0-2.35,0,2.82,2.82,0,0,0-.88.67,3.25,3.25,0,0,0-.55,1,5.29,5.29,0,0,0-.27,1.11Z" transform="translate(0 0)"></path></g><g><path d="M117.26,109.45a18,18,0,0,1-2.22.5,18.31,18.31,0,0,1-2.82.22,7.51,7.51,0,0,1-2.73-.47,5.66,5.66,0,0,1-2-1.34,5.8,5.8,0,0,1-1.31-2.12,8.12,8.12,0,0,1-.45-2.79,9.23,9.23,0,0,1,.38-2.77,6.05,6.05,0,0,1,1.12-2.12A4.9,4.9,0,0,1,109,97.19a5.87,5.87,0,0,1,2.44-.48,5.54,5.54,0,0,1,1.65.22,8.07,8.07,0,0,1,1.23.49V91.25l3-.49Zm-8.53-6.07a4.66,4.66,0,0,0,.93,3.08,3.19,3.19,0,0,0,2.59,1.12,10.37,10.37,0,0,0,1.21-.06,8.19,8.19,0,0,0,.83-.13V100a4.9,4.9,0,0,0-1.05-.51,4.22,4.22,0,0,0-1.39-.23,2.66,2.66,0,0,0-2.37,1.11A5.24,5.24,0,0,0,108.73,103.38Z" transform="translate(0 0)"></path><path d="M124.76,110.09a7.82,7.82,0,0,1-2.2-.29,3.27,3.27,0,0,1-1.39-.78,2.66,2.66,0,0,1-.73-1.25,6.35,6.35,0,0,1-.21-1.71V91.25l3-.49v14.73a4.58,4.58,0,0,0,.08.91,1.55,1.55,0,0,0,.31.63,1.4,1.4,0,0,0,.61.39,4.6,4.6,0,0,0,1,.21Z" transform="translate(0 0)"></path><path d="M131.58,96.66a7.16,7.16,0,0,1,2.48.37,3.68,3.68,0,0,1,2.48,2.64,8.07,8.07,0,0,1,.25,2.08v7.8c-.45.1-1.15.22-2.07.36a21.26,21.26,0,0,1-3.14.21,9.93,9.93,0,0,1-2.12-.22,4.42,4.42,0,0,1-1.63-.72,3.32,3.32,0,0,1-1.06-1.28,4.47,4.47,0,0,1-.38-1.94,3.72,3.72,0,0,1,.43-1.87,3.56,3.56,0,0,1,1.17-1.24,5,5,0,0,1,1.71-.69,9.57,9.57,0,0,1,2-.21,9.15,9.15,0,0,1,2.19.27v-.49a3.58,3.58,0,0,0-.13-1,2,2,0,0,0-.43-.82,1.91,1.91,0,0,0-.81-.55,3.54,3.54,0,0,0-1.26-.2,11.09,11.09,0,0,0-1.9.15,8.71,8.71,0,0,0-1.4.34l-.37-2.41a12,12,0,0,1,1.65-.39A13,13,0,0,1,131.58,96.66Zm.25,11.1a11,11,0,0,0,2.09-.15v-3.3a6.2,6.2,0,0,0-.72-.15,6.5,6.5,0,0,0-1-.07,6.82,6.82,0,0,0-1,.07,3.22,3.22,0,0,0-.91.27,1.77,1.77,0,0,0-.65.56,1.89,1.89,0,0,0,.42,2.36A3.43,3.43,0,0,0,131.83,107.76Z" transform="translate(0 0)"></path><path d="M148.91,92.8c.36.62.76,1.39,1.21,2.29s.89,1.85,1.35,2.84.91,2,1.36,3,.87,2,1.25,2.85q.55-1.3,1.23-2.85c.44-1,.89-2,1.35-3s.91-1.94,1.35-2.84.85-1.67,1.21-2.29H162c.15,1.25.29,2.57.43,4s.25,2.84.36,4.31.21,2.94.3,4.43.17,2.93.24,4.34h-3.05q-.1-3-.24-6.13t-.41-6.1c-.18.38-.4.83-.64,1.35s-.51,1.1-.79,1.71l-.85,1.91-.84,1.91-.75,1.72c-.23.53-.42,1-.59,1.36h-2.31l-.59-1.37c-.23-.55-.48-1.12-.75-1.74l-.84-1.9c-.28-.66-.57-1.29-.85-1.9s-.54-1.18-.78-1.71-.46-1-.64-1.34c-.19,2-.32,4-.42,6.1s-.17,4.14-.23,6.13h-3.05c.06-1.41.14-2.87.23-4.38s.2-3,.3-4.49.23-2.92.37-4.32.27-2.68.42-3.86Z" transform="translate(0 0)"></path><path d="M170.71,96.66a7.16,7.16,0,0,1,2.48.37,4,4,0,0,1,1.61,1,3.8,3.8,0,0,1,.86,1.61,7.65,7.65,0,0,1,.26,2.08v7.8c-.46.1-1.15.22-2.08.36a21,21,0,0,1-3.13.21,9.93,9.93,0,0,1-2.12-.22,4.42,4.42,0,0,1-1.63-.72,3.24,3.24,0,0,1-1.06-1.28,4.33,4.33,0,0,1-.38-1.94,3.72,3.72,0,0,1,.43-1.87,3.39,3.39,0,0,1,1.17-1.24,5,5,0,0,1,1.71-.69,9.54,9.54,0,0,1,3.06-.15,9.1,9.1,0,0,1,1.15.21v-.49a4,4,0,0,0-.12-1,2,2,0,0,0-.43-.82,1.91,1.91,0,0,0-.81-.55,3.56,3.56,0,0,0-1.27-.2,11,11,0,0,0-1.89.15,8.45,8.45,0,0,0-1.4.34l-.37-2.41a11.31,11.31,0,0,1,1.65-.39A13,13,0,0,1,170.71,96.66Zm.24,11.1a10.84,10.84,0,0,0,2.09-.15v-3.3a5.54,5.54,0,0,0-.71-.15,6.58,6.58,0,0,0-1-.07,6.82,6.82,0,0,0-1,.07,3.22,3.22,0,0,0-.91.27,1.69,1.69,0,0,0-.65.56,1.59,1.59,0,0,0-.25.9,1.56,1.56,0,0,0,.67,1.46A3.41,3.41,0,0,0,171,107.76Z" transform="translate(0 0)"></path><path d="M177.68,100.42l2.41-1.2v-8l3-.49v7l1.77-.91.94,1.89-2.71,1.38v5.41a3.88,3.88,0,0,0,.09.91,1.42,1.42,0,0,0,.3.63,1.4,1.4,0,0,0,.61.39,4.6,4.6,0,0,0,1,.21l-.42,2.46a7.82,7.82,0,0,1-2.2-.29A3.27,3.27,0,0,1,181,109a2.66,2.66,0,0,1-.73-1.25,6.35,6.35,0,0,1-.21-1.71v-4.48l-1.45.74Z" transform="translate(0 0)"></path><path d="M198.91,103.4a8.44,8.44,0,0,1-.44,2.78,6.07,6.07,0,0,1-1.26,2.14,5.67,5.67,0,0,1-2,1.38,6.26,6.26,0,0,1-2.52.49,6.18,6.18,0,0,1-2.51-.49,5.77,5.77,0,0,1-1.95-1.38,6.22,6.22,0,0,1-1.26-2.14,8,8,0,0,1-.46-2.78,7.85,7.85,0,0,1,.46-2.77,6.2,6.2,0,0,1,1.28-2.12,5.7,5.7,0,0,1,1.95-1.37,6.7,6.7,0,0,1,5,0,5.46,5.46,0,0,1,2,1.37,6.51,6.51,0,0,1,1.27,2.12A8.09,8.09,0,0,1,198.91,103.4Zm-3,0a5,5,0,0,0-.82-3,2.92,2.92,0,0,0-4.6,0,5,5,0,0,0-.83,3,5.14,5.14,0,0,0,.83,3.08,2.91,2.91,0,0,0,4.6,0A5.14,5.14,0,0,0,195.86,103.4Z" transform="translate(0 0)"></path><path d="M213,103.43a8.9,8.9,0,0,1-.39,2.7,6.17,6.17,0,0,1-1.09,2.12,5,5,0,0,1-1.78,1.38,5.92,5.92,0,0,1-2.43.49,6.3,6.3,0,0,1-1.67-.22,6.11,6.11,0,0,1-1.25-.5v5h-3v-17c.61-.16,1.35-.32,2.24-.47a16.73,16.73,0,0,1,2.8-.22,7.51,7.51,0,0,1,2.73.47,5.7,5.7,0,0,1,2.06,1.34,6,6,0,0,1,1.3,2.11A8.18,8.18,0,0,1,213,103.43Zm-3.05,0a4.77,4.77,0,0,0-.9-3.1,3.5,3.5,0,0,0-2.89-1.11c-.28,0-.57,0-.88,0a3.87,3.87,0,0,0-.89.16v7.35a4.79,4.79,0,0,0,1,.51,4.27,4.27,0,0,0,1.39.23,2.66,2.66,0,0,0,2.37-1.11A5.23,5.23,0,0,0,209.91,103.48Z" transform="translate(0 0)"></path><path d="M227.1,103.4a8.19,8.19,0,0,1-.44,2.78,6.2,6.2,0,0,1-1.25,2.14,5.81,5.81,0,0,1-2,1.38,6.26,6.26,0,0,1-2.52.49,6.18,6.18,0,0,1-2.51-.49,5.77,5.77,0,0,1-1.95-1.38,6.22,6.22,0,0,1-1.26-2.14,8,8,0,0,1-.46-2.78,7.85,7.85,0,0,1,.46-2.77,6.2,6.2,0,0,1,1.28-2.12,5.7,5.7,0,0,1,1.95-1.37,6.7,6.7,0,0,1,5,0,5.46,5.46,0,0,1,2,1.37,6.51,6.51,0,0,1,1.27,2.12A8.09,8.09,0,0,1,227.1,103.4Zm-3,0a5,5,0,0,0-.82-3,2.92,2.92,0,0,0-4.6,0,5,5,0,0,0-.83,3,5.14,5.14,0,0,0,.83,3.08,2.91,2.91,0,0,0,4.6,0A5.14,5.14,0,0,0,224.05,103.4Z" transform="translate(0 0)"></path><path d="M234,110.09a7.93,7.93,0,0,1-2.2-.29,3.4,3.4,0,0,1-1.39-.78,2.73,2.73,0,0,1-.72-1.25,6.35,6.35,0,0,1-.21-1.71V91.25l3-.49v14.73a3.88,3.88,0,0,0,.09.91,1.34,1.34,0,0,0,.91,1,4.9,4.9,0,0,0,1,.21Z" transform="translate(0 0)"></path><path d="M240.54,107.71a3.86,3.86,0,0,0,1.72-.29,1,1,0,0,0,.54-1,1.28,1.28,0,0,0-.57-1.06,9,9,0,0,0-1.91-.91,13.94,13.94,0,0,1-1.49-.62,5,5,0,0,1-1.17-.78,3.09,3.09,0,0,1-.77-1.07,3.72,3.72,0,0,1-.28-1.54,3.34,3.34,0,0,1,1.3-2.79,5.6,5.6,0,0,1,3.54-1,11.68,11.68,0,0,1,3.72.62l-.55,2.41a6.53,6.53,0,0,0-1.25-.41,7.78,7.78,0,0,0-1.77-.18,3.16,3.16,0,0,0-1.48.3,1,1,0,0,0-.56.95,1.32,1.32,0,0,0,.11.57,1.21,1.21,0,0,0,.38.45,4,4,0,0,0,.71.42c.3.14.66.28,1.09.43a15.08,15.08,0,0,1,1.79.78,4.8,4.8,0,0,1,1.22.86,3,3,0,0,1,.7,1.09,4.31,4.31,0,0,1,.22,1.48,3.17,3.17,0,0,1-1.36,2.79,6.81,6.81,0,0,1-3.9,1,10.58,10.58,0,0,1-2.73-.29,13.86,13.86,0,0,1-1.46-.45l.52-2.49a12.39,12.39,0,0,0,1.59.52A8.28,8.28,0,0,0,240.54,107.71Z" transform="translate(0 0)"></path><path d="M251.26,102l1.2-1.27q.64-.67,1.26-1.35l1.16-1.3,1-1.1h3.52c-.82.92-1.68,1.87-2.59,2.85s-1.82,2-2.74,2.88a17.49,17.49,0,0,1,1.55,1.49c.54.58,1.06,1.2,1.57,1.86s1,1.31,1.43,2a20.53,20.53,0,0,1,1.1,1.82h-3.44c-.3-.51-.64-1-1-1.6s-.8-1.1-1.25-1.63-.89-1-1.35-1.48a11.9,11.9,0,0,0-1.35-1.2v5.91h-3V91.25l3-.49Z" transform="translate(0 0)"></path><path d="M264.67,93.22a1.69,1.69,0,0,1-.55,1.33,1.85,1.85,0,0,1-1.27.49,1.92,1.92,0,0,1-1.31-.49,1.71,1.71,0,0,1-.54-1.33,1.75,1.75,0,0,1,.54-1.36,1.92,1.92,0,0,1,1.31-.49,1.85,1.85,0,0,1,1.27.49A1.72,1.72,0,0,1,264.67,93.22Zm-.32,16.63h-3V97h3Z" transform="translate(0 0)"></path></g><g><polygon class="eeb2d078-84f7-4c5b-bef2-f20cd69179d1" points="84.42 141.73 27.72 131.1 27.72 46.06 84.42 28.35 84.42 141.73"></polygon><g><path class="af0d8335-220a-47db-9e38-895dbc2f1fd8" d="M27.73,110.66V88.59c2.86.77,6,1.14,8.13-.12,4.57-2.74,11.51-11.1,11.51-11.1s-3.66,9-2.28,12.33c1.46,3.52,10.12,3.71,10.12,3.71s-9.79,6-14.35,9.9-7.94,18.83-7.94,18.83-2.27-9.49-5.19-11.48" transform="translate(0 0)"></path><path class="bb0cb463-8f32-4805-bcb7-1aa4f521d549" d="M84.42,71.71a17.7,17.7,0,0,1-5.34,2.49c-4.55.88-9.43-4.35-9.43-4.35s1.15,7.65-1.72,12.37c-3,5-12.71,11.18-12.71,11.18S65.94,91.33,68,94.65c2.22,3.57,2.52,16,2.52,16S76,95.73,81,93.7a31,31,0,0,1,3.46-1.16Z" transform="translate(0 0)"></path><path class="b3e44c17-76bf-4715-a74c-c81f05ac95ae" d="M47.37,77.37s5.48-8.59,5.15-11.64-6-4-6-4S54,60,57.2,57s5.86-8.66,5.86-8.66.69,4.84,3.48,5.53,10.54-2.38,10.54-2.38a108.5,108.5,0,0,0-8.43,8.86c-2.48,3.26,1,9.47,1,9.47s-6.43-2.24-10-1.56-12.26,9.08-12.26,9.08" transform="translate(0 0)"></path></g></g></g><g><g><path class="a88a6db2-4b4a-42db-9846-15f0ae6162f5" d="M1007.32,103.8a1.56,1.56,0,0,1-.67-1.46,1.5,1.5,0,0,1,.25-.9,1.59,1.59,0,0,1,.65-.55,2.85,2.85,0,0,1,.91-.28,7.39,7.39,0,0,1,2,0,5.54,5.54,0,0,1,.71.15v3.3a10.84,10.84,0,0,1-2.09.15,3.41,3.41,0,0,1-1.79-.41m-.77-10.49a12,12,0,0,0-1.65.39l.37,2.41a8.71,8.71,0,0,1,1.4-.34,11.18,11.18,0,0,1,1.9-.15,3.46,3.46,0,0,1,1.26.2,2,2,0,0,1,.82.55,2.22,2.22,0,0,1,.43.82,4,4,0,0,1,.12,1v.49a8.92,8.92,0,0,0-1.16-.21,9.29,9.29,0,0,0-1-.06,9.64,9.64,0,0,0-2,.21,5,5,0,0,0-1.71.69,3.68,3.68,0,0,0-1.17,1.25,3.76,3.76,0,0,0-.43,1.86,4.47,4.47,0,0,0,.38,1.94,3.34,3.34,0,0,0,1.06,1.28,4.47,4.47,0,0,0,1.64.72,9.84,9.84,0,0,0,2.11.22c.38,0,.75,0,1.1,0s.69,0,1-.07a4.92,4.92,0,0,0-.84.79,4.36,4.36,0,0,0-.69.94,2.24,2.24,0,0,0-.27,1.07,1.82,1.82,0,0,0,.68,1.49,3.46,3.46,0,0,0,2.2.55,6.87,6.87,0,0,0,1.1-.08,5.62,5.62,0,0,0,.94-.23l-.24-2a3,3,0,0,1-.64.16,3.29,3.29,0,0,1-.49,0c-.58,0-.86-.22-.86-.66a1.1,1.1,0,0,1,.19-.62,4.08,4.08,0,0,1,.54-.64,9,9,0,0,1,.8-.74l.68-.54V98.2a7.93,7.93,0,0,0-.26-2.07,3.89,3.89,0,0,0-.86-1.62,4,4,0,0,0-1.61-1,7.22,7.22,0,0,0-2.49-.37,13,13,0,0,0-2.31.2m-12.28-6.1-3,.49v18.6h3v-5.91a11.9,11.9,0,0,1,1.35,1.2c.46.46.91,1,1.35,1.48s.86,1.07,1.24,1.63.73,1.09,1,1.6h3.44a16.84,16.84,0,0,0-1.11-1.82c-.44-.66-.91-1.32-1.42-2s-1-1.28-1.57-1.86A17.49,17.49,0,0,0,997,99.16c.92-.93,1.83-1.89,2.74-2.87s1.77-1.94,2.59-2.86h-3.52l-.94,1.1-1.17,1.3q-.62.67-1.26,1.35l-1.2,1.27Zm-12.8,16.7a12.39,12.39,0,0,1-1.59-.52l-.52,2.49c.28.11.77.26,1.46.45a10.47,10.47,0,0,0,2.73.29,6.81,6.81,0,0,0,3.9-1,3.17,3.17,0,0,0,1.36-2.79,4.31,4.31,0,0,0-.22-1.48,3,3,0,0,0-.7-1.09,4.8,4.8,0,0,0-1.22-.86,14.59,14.59,0,0,0-1.8-.78c-.42-.15-.78-.29-1.08-.43a4,4,0,0,1-.71-.42,1.21,1.21,0,0,1-.38-.45,1.32,1.32,0,0,1-.11-.57,1,1,0,0,1,.56-1,3.16,3.16,0,0,1,1.48-.3,7.78,7.78,0,0,1,1.77.18,6.91,6.91,0,0,1,1.26.41l.54-2.41a11.22,11.22,0,0,0-1.55-.41,10.87,10.87,0,0,0-2.17-.21,5.6,5.6,0,0,0-3.54,1,3.35,3.35,0,0,0-1.31,2.79,3.71,3.71,0,0,0,.29,1.54,3.09,3.09,0,0,0,.77,1.07,5,5,0,0,0,1.17.78,13.94,13.94,0,0,0,1.49.62,8.23,8.23,0,0,1,1.9.91,1.25,1.25,0,0,1,.58,1.06,1,1,0,0,1-.54,1,3.86,3.86,0,0,1-1.72.29,8.28,8.28,0,0,1-2.1-.25m-4.83-15.6a1.88,1.88,0,0,0-1.28-.49,1.92,1.92,0,0,0-1.31.49,1.75,1.75,0,0,0-.54,1.36,1.73,1.73,0,0,0,.54,1.33,1.92,1.92,0,0,0,1.31.49,1.88,1.88,0,0,0,1.28-.49,1.73,1.73,0,0,0,.54-1.33,1.75,1.75,0,0,0-.54-1.36m-1,21.36a5.09,5.09,0,0,0,1.2-3.72V93.43h-3V105.9a3.16,3.16,0,0,1-.42,1.81,1.64,1.64,0,0,1-1.45.6,4.14,4.14,0,0,1-1.3-.17l-.39,2.44a4.06,4.06,0,0,0,1,.23q.58.06.9.06a4.62,4.62,0,0,0,3.43-1.2M962.41,98.6a5.31,5.31,0,0,1,.28-1.11,3,3,0,0,1,.55-1,2.92,2.92,0,0,1,.87-.68,2.73,2.73,0,0,1,1.21-.25,2.52,2.52,0,0,1,1.14.23,2.3,2.3,0,0,1,.81.64,2.94,2.94,0,0,1,.51,1A4.09,4.09,0,0,1,968,98.6Zm-2.7,4a5.68,5.68,0,0,0,1.2,2.12,5.54,5.54,0,0,0,2.07,1.4,7.82,7.82,0,0,0,2.95.51,11.24,11.24,0,0,0,1.31-.08c.42-.05.82-.11,1.19-.18a8.17,8.17,0,0,0,1-.25,3.75,3.75,0,0,0,.68-.26l-.39-2.43a8,8,0,0,1-1.42.42,9.37,9.37,0,0,1-2,.19,4.11,4.11,0,0,1-2.81-.85,3.36,3.36,0,0,1-1.1-2.39h8.49c0-.17,0-.35,0-.56s0-.39,0-.55a7.15,7.15,0,0,0-1.49-4.92,5.29,5.29,0,0,0-4.15-1.65,5.87,5.87,0,0,0-2.21.43,5.72,5.72,0,0,0-1.92,1.28A6.35,6.35,0,0,0,959.82,97a8,8,0,0,0-.5,3,8.68,8.68,0,0,0,.39,2.66m-2.92-5.51A6,6,0,0,0,955.48,95a5.66,5.66,0,0,0-2.05-1.34,7.51,7.51,0,0,0-2.73-.47,16.94,16.94,0,0,0-2.81.22c-.88.15-1.63.31-2.23.47v17h3v-5a5.89,5.89,0,0,0,1.26.5,6.25,6.25,0,0,0,1.67.22,5.84,5.84,0,0,0,2.42-.49,4.9,4.9,0,0,0,1.79-1.38,6.35,6.35,0,0,0,1.09-2.12,8.9,8.9,0,0,0,.38-2.7,8.18,8.18,0,0,0-.45-2.8m-3.35,5.82a2.66,2.66,0,0,1-2.37,1.11,4.22,4.22,0,0,1-1.39-.23,4.67,4.67,0,0,1-1-.51V95.92a4.05,4.05,0,0,1,.9-.16,8.71,8.71,0,0,1,.87,0,3.49,3.49,0,0,1,2.89,1.11,4.77,4.77,0,0,1,.9,3.1,5.23,5.23,0,0,1-.75,3m-14.39,0a2.91,2.91,0,0,1-4.6,0,5.14,5.14,0,0,1-.83-3.08,5,5,0,0,1,.83-3,2.92,2.92,0,0,1,4.6,0,5,5,0,0,1,.82,3,5.14,5.14,0,0,1-.82,3.08m3.42-5.85A6.51,6.51,0,0,0,941.2,95a5.46,5.46,0,0,0-2-1.37,6.7,6.7,0,0,0-5,0,5.7,5.7,0,0,0-2,1.37A6.2,6.2,0,0,0,931,97.08a8.6,8.6,0,0,0,0,5.55,6.09,6.09,0,0,0,1.27,2.14,5.63,5.63,0,0,0,1.94,1.38,6.18,6.18,0,0,0,2.51.49,6.26,6.26,0,0,0,2.52-.49,5.81,5.81,0,0,0,2-1.38,6.2,6.2,0,0,0,1.25-2.14,8.4,8.4,0,0,0,.44-2.78,8.09,8.09,0,0,0-.45-2.77M929.61,93.6l-.59-.16-.76-.14a7.42,7.42,0,0,0-.79-.1,6,6,0,0,0-.69,0,13.37,13.37,0,0,0-2.87.28,15.71,15.71,0,0,0-2.15.61V106.3h3V96a5.28,5.28,0,0,1,.77-.17,5.63,5.63,0,0,1,1-.1,7.52,7.52,0,0,1,1.51.13,9.13,9.13,0,0,1,1,.26Zm-11.23-.17h-3v10.41a5.79,5.79,0,0,1-.9.12c-.41,0-.79.05-1.15.05a2.35,2.35,0,0,1-2.1-.89,5.44,5.44,0,0,1-.6-3V93.43h-3v7.21A10,10,0,0,0,908,103a4.84,4.84,0,0,0,.9,1.88,4.24,4.24,0,0,0,1.67,1.23,6.78,6.78,0,0,0,2.6.44,18.64,18.64,0,0,0,3-.23c.92-.16,1.67-.31,2.24-.46ZM905.54,106.3v-2.64h-8.43v-5h7V96.09h-7V91.88H905V89.25H894v17Zm-29.79-7.7a5.29,5.29,0,0,1,.27-1.11,3,3,0,0,1,.55-1,2.84,2.84,0,0,1,.88-.68,2.65,2.65,0,0,1,1.2-.25,2.54,2.54,0,0,1,1.15.23,2.3,2.3,0,0,1,.81.64,2.74,2.74,0,0,1,.5,1,3.77,3.77,0,0,1,.18,1.17Zm-2.71,4a5.7,5.7,0,0,0,1.21,2.12,5.42,5.42,0,0,0,2.06,1.4,7.87,7.87,0,0,0,3,.51h.32a1.66,1.66,0,0,0,.32,0,7.27,7.27,0,0,0-1.17,1.3,2.4,2.4,0,0,0-.46,1.38,1.79,1.79,0,0,0,.73,1.52,3.71,3.71,0,0,0,2.18.52,8,8,0,0,0,1-.07,3.9,3.9,0,0,0,1-.24l-.23-2a3.91,3.91,0,0,1-1.13.2c-.57,0-.86-.22-.86-.66a1.16,1.16,0,0,1,.25-.66,4.87,4.87,0,0,1,.61-.72,8.78,8.78,0,0,1,.79-.7c.28-.23.54-.42.79-.61l-.4-2.43a7.62,7.62,0,0,1-1.41.42,9.37,9.37,0,0,1-2,.19,4.15,4.15,0,0,1-2.82-.85,3.39,3.39,0,0,1-1.1-2.39h8.49c0-.17,0-.35,0-.56s0-.39,0-.55a7.1,7.1,0,0,0-1.49-4.92,5.28,5.28,0,0,0-4.14-1.65,5.92,5.92,0,0,0-2.22.43,5.72,5.72,0,0,0-1.92,1.28A6.51,6.51,0,0,0,873.15,97a8.19,8.19,0,0,0-.5,3,8.68,8.68,0,0,0,.39,2.66m-3.38-14.28a1.88,1.88,0,0,0-1.28-.49,1.93,1.93,0,0,0-1.31.49,1.75,1.75,0,0,0-.54,1.36,1.73,1.73,0,0,0,.54,1.33,1.93,1.93,0,0,0,1.31.49,1.88,1.88,0,0,0,1.28-.49,1.73,1.73,0,0,0,.54-1.33,1.75,1.75,0,0,0-.54-1.36m.22,5.12h-3V106.3h3Zm-17,12.87h3V95.92c.2,0,.5-.08.91-.13a9.68,9.68,0,0,1,1.18-.07,3.48,3.48,0,0,1,1.29.21,1.78,1.78,0,0,1,.84.66,3.2,3.2,0,0,1,.44,1.18,9.8,9.8,0,0,1,.14,1.76v6.77h3V99.06a10,10,0,0,0-.26-2.39,4.51,4.51,0,0,0-.88-1.87,4.11,4.11,0,0,0-1.69-1.21,7.13,7.13,0,0,0-2.63-.43,19.08,19.08,0,0,0-3.05.22,21.69,21.69,0,0,0-2.24.47Zm-7.1-.14a5.48,5.48,0,0,0,2.11-1.41,5.91,5.91,0,0,0,1.23-2.14,8.61,8.61,0,0,0,.4-2.71V89.25h-3.12V99.61a6.74,6.74,0,0,1-.26,2,3.46,3.46,0,0,1-.74,1.34,2.93,2.93,0,0,1-1.14.76,4.33,4.33,0,0,1-1.48.25,4.18,4.18,0,0,1-1.46-.25,2.9,2.9,0,0,1-1.13-.76,3.46,3.46,0,0,1-.74-1.34,6.74,6.74,0,0,1-.26-2V89.25h-3.12V99.9a8.92,8.92,0,0,0,.39,2.71,5.75,5.75,0,0,0,1.22,2.14,5.52,5.52,0,0,0,2.08,1.41,7.91,7.91,0,0,0,3,.51,8.13,8.13,0,0,0,3-.51" transform="translate(0 0)"></path><path class="a88a6db2-4b4a-42db-9846-15f0ae6162f5" d="M1014,65.09h-9.76v2.48h5.92c-.44.53-.94,1.14-1.51,1.85s-1.13,1.44-1.71,2.22-1.13,1.56-1.67,2.33a22.76,22.76,0,0,0-1.35,2.14V78h10.23V75.47h-6.64c.49-.76,1-1.55,1.66-2.38s1.22-1.62,1.83-2.38,1.18-1.46,1.71-2.08,1-1.11,1.29-1.45Zm-20.1,5.16a5.61,5.61,0,0,1,.27-1.11,3.35,3.35,0,0,1,.56-1,2.77,2.77,0,0,1,.87-.68,2.73,2.73,0,0,1,1.21-.26,2.66,2.66,0,0,1,1.14.23,2.33,2.33,0,0,1,.81.65,2.89,2.89,0,0,1,.51,1,4.09,4.09,0,0,1,.17,1.17Zm-2.7,4a5.76,5.76,0,0,0,1.2,2.12,5.5,5.5,0,0,0,2.07,1.4,8,8,0,0,0,2.95.5,11.38,11.38,0,0,0,1.31-.07c.42,0,.82-.11,1.19-.19a8.29,8.29,0,0,0,1-.24,5.2,5.2,0,0,0,.68-.26l-.39-2.44a8,8,0,0,1-1.42.42,9.35,9.35,0,0,1-2,.2,4.11,4.11,0,0,1-2.81-.85,3.4,3.4,0,0,1-1.1-2.4h8.49c0-.16,0-.35,0-.55s0-.39,0-.56a7.15,7.15,0,0,0-1.48-4.92,5.33,5.33,0,0,0-4.15-1.64,5.87,5.87,0,0,0-2.21.43,5.44,5.44,0,0,0-1.92,1.28,6.21,6.21,0,0,0-1.34,2.12,8.06,8.06,0,0,0-.5,3,8.7,8.7,0,0,0,.39,2.67m-2.11-9.16h-9.76v2.48h5.93c-.45.53-.95,1.14-1.52,1.85s-1.13,1.44-1.71,2.22-1.13,1.56-1.67,2.33A22.76,22.76,0,0,0,979,76.11V78h10.23V75.47h-6.64c.49-.76,1-1.55,1.66-2.38s1.22-1.62,1.83-2.38,1.18-1.46,1.71-2.08,1-1.11,1.29-1.45Zm-11.32.17-.59-.16c-.25-.06-.5-.11-.76-.15l-.79-.1c-.26,0-.49,0-.69,0a13.41,13.41,0,0,0-2.87.29,17.45,17.45,0,0,0-2.15.6V78h3V67.64l.77-.17a6.57,6.57,0,0,1,1.05-.09,7.52,7.52,0,0,1,1.51.13,9.13,9.13,0,0,1,1,.26Zm-11,3.48a5.89,5.89,0,0,0-1.31-2.11,5.68,5.68,0,0,0-2.05-1.35,7.51,7.51,0,0,0-2.73-.47,16.71,16.71,0,0,0-2.8.23,22.19,22.19,0,0,0-2.24.46v17h3v-5a6.51,6.51,0,0,0,1.26.49,5.87,5.87,0,0,0,1.67.22,5.69,5.69,0,0,0,2.42-.49,4.9,4.9,0,0,0,1.79-1.38,6.3,6.3,0,0,0,1.09-2.11,8.92,8.92,0,0,0,.38-2.71,8.16,8.16,0,0,0-.45-2.79m-3.35,5.82a2.65,2.65,0,0,1-2.37,1.1,4,4,0,0,1-1.39-.23,4.69,4.69,0,0,1-1-.5V67.57a5.67,5.67,0,0,1,.9-.16l.87,0a3.52,3.52,0,0,1,2.9,1.1,4.85,4.85,0,0,1,.89,3.1,5.24,5.24,0,0,1-.75,3m-25.34-4.31a5.61,5.61,0,0,1,.27-1.11,3.14,3.14,0,0,1,.56-1,2.56,2.56,0,0,1,.87-.68,2.94,2.94,0,0,1,2.35,0,2.33,2.33,0,0,1,.81.65,2.69,2.69,0,0,1,.5,1,3.77,3.77,0,0,1,.18,1.17Zm-2.7,4a5.76,5.76,0,0,0,1.2,2.12,5.5,5.5,0,0,0,2.07,1.4,8,8,0,0,0,3,.5,11.09,11.09,0,0,0,1.3-.07c.43,0,.83-.11,1.2-.19a8.81,8.81,0,0,0,1-.24,5.2,5.2,0,0,0,.68-.26l-.4-2.44a7.62,7.62,0,0,1-1.41.42,9.35,9.35,0,0,1-2,.2,4.15,4.15,0,0,1-2.82-.85,3.39,3.39,0,0,1-1.09-2.4h8.48c0-.16,0-.35,0-.55s0-.39,0-.56a7.1,7.1,0,0,0-1.49-4.92A5.31,5.31,0,0,0,941,64.77a5.92,5.92,0,0,0-2.22.43,5.31,5.31,0,0,0-1.91,1.28,6.06,6.06,0,0,0-1.34,2.12,8.05,8.05,0,0,0-.51,3,8.4,8.4,0,0,0,.4,2.67M921.65,78h3V67.57l.91-.12a9.57,9.57,0,0,1,1.18-.07,3.53,3.53,0,0,1,1.29.2,1.72,1.72,0,0,1,.83.67,3,3,0,0,1,.45,1.18,9.81,9.81,0,0,1,.13,1.76V78h3V70.72a10.57,10.57,0,0,0-.26-2.4,4.58,4.58,0,0,0-.89-1.87,4.06,4.06,0,0,0-1.68-1.2,7,7,0,0,0-2.63-.44,18.93,18.93,0,0,0-3.05.23,19.15,19.15,0,0,0-2.24.46Zm-10.8-13a11.41,11.41,0,0,0-1.65.4l.37,2.41a8.6,8.6,0,0,1,1.4-.35,12.13,12.13,0,0,1,1.89-.14,3.54,3.54,0,0,1,1.27.19,1.93,1.93,0,0,1,.81.56,1.9,1.9,0,0,1,.43.82,3.93,3.93,0,0,1,.12,1v.5a8.79,8.79,0,0,0-1.15-.21,9.29,9.29,0,0,0-1-.06,10.2,10.2,0,0,0-2,.2,5,5,0,0,0-1.71.69,3.5,3.5,0,0,0-1.17,1.25,3.71,3.71,0,0,0-.43,1.86,4.52,4.52,0,0,0,.38,2,3.4,3.4,0,0,0,1.06,1.28A4.41,4.41,0,0,0,911,78a9.33,9.33,0,0,0,2.12.22A21.26,21.26,0,0,0,916.3,78c.92-.13,1.61-.25,2.08-.35v-7.8a8,8,0,0,0-.26-2.08,3.74,3.74,0,0,0-2.48-2.64,7.16,7.16,0,0,0-2.48-.37,13,13,0,0,0-2.31.19m.76,10.5a1.87,1.87,0,0,1-.42-2.37,1.67,1.67,0,0,1,.65-.55,3.22,3.22,0,0,1,.91-.27,6.82,6.82,0,0,1,1-.07,6.5,6.5,0,0,1,1,.07,5.54,5.54,0,0,1,.71.15v3.29a10.79,10.79,0,0,1-2.08.15,3.43,3.43,0,0,1-1.8-.4M899,74.08c.45,1.37.89,2.66,1.31,3.87h2.42c.35-.75.7-1.61,1.06-2.58s.72-2,1.09-3.1S905.61,70,906,68.8s.71-2.45,1.06-3.71H904c-.14.69-.32,1.43-.52,2.22s-.4,1.61-.63,2.44-.45,1.64-.68,2.42-.45,1.51-.66,2.17c-.25-.76-.49-1.54-.73-2.34s-.46-1.61-.66-2.41-.4-1.59-.58-2.35-.34-1.48-.49-2.15h-2.28c-.15.67-.32,1.39-.51,2.15s-.39,1.55-.61,2.35-.43,1.61-.67,2.41-.48,1.58-.73,2.34c-.23-.66-.46-1.38-.69-2.17s-.45-1.59-.67-2.42-.42-1.64-.62-2.44-.37-1.53-.52-2.22h-3.15c.35,1.26.7,2.5,1.06,3.71s.73,2.37,1.09,3.47.72,2.13,1.08,3.1.71,1.83,1,2.58h2.44q.65-1.82,1.29-3.87c.44-1.37.84-2.78,1.22-4.22.37,1.44.79,2.85,1.24,4.22m-15.33.5a2.91,2.91,0,0,1-4.6,0,5.11,5.11,0,0,1-.82-3.07,5,5,0,0,1,.82-3,2.92,2.92,0,0,1,4.6,0,5,5,0,0,1,.83,3,5.11,5.11,0,0,1-.83,3.07m3.42-5.84a6.27,6.27,0,0,0-1.26-2.13,5.53,5.53,0,0,0-2-1.36,6.37,6.37,0,0,0-2.5-.48,6.27,6.27,0,0,0-2.48.48,5.62,5.62,0,0,0-2,1.36,6.31,6.31,0,0,0-1.28,2.13,8.09,8.09,0,0,0-.45,2.77,8.23,8.23,0,0,0,.45,2.78,6.5,6.5,0,0,0,1.27,2.14,5.73,5.73,0,0,0,1.94,1.38,6.42,6.42,0,0,0,2.51.49,6.52,6.52,0,0,0,2.53-.49,5.67,5.67,0,0,0,2-1.38,6.31,6.31,0,0,0,1.26-2.14,8.49,8.49,0,0,0,.44-2.78,7.85,7.85,0,0,0-.46-2.77m-21.05,6.83a14.9,14.9,0,0,1-1.59-.52L864,77.54c.27.11.76.26,1.45.45a10.64,10.64,0,0,0,2.73.28,6.81,6.81,0,0,0,3.9-.94,3.2,3.2,0,0,0,1.36-2.8,4.29,4.29,0,0,0-.22-1.47,3,3,0,0,0-.7-1.1,4.88,4.88,0,0,0-1.22-.86,17.07,17.07,0,0,0-1.79-.77,9.42,9.42,0,0,1-1.09-.44,3.51,3.51,0,0,1-.71-.41,1.16,1.16,0,0,1-.38-.46,1.4,1.4,0,0,1-.11-.56,1,1,0,0,1,.56-.95,3.16,3.16,0,0,1,1.48-.31,7.22,7.22,0,0,1,1.77.19,7,7,0,0,1,1.26.4l.54-2.41a12.38,12.38,0,0,0-1.55-.41,11.67,11.67,0,0,0-2.17-.2,5.6,5.6,0,0,0-3.54,1,3.34,3.34,0,0,0-1.3,2.79,3.72,3.72,0,0,0,.28,1.54,3.33,3.33,0,0,0,.77,1.07,5.27,5.27,0,0,0,1.17.77c.45.22.95.43,1.49.63a8.57,8.57,0,0,1,1.91.91,1.28,1.28,0,0,1,.58,1.06,1,1,0,0,1-.55,1,3.88,3.88,0,0,1-1.72.28,8.42,8.42,0,0,1-2.1-.24M850.84,78h3V67.57l.91-.12a9.84,9.84,0,0,1,1.19-.07,3.57,3.57,0,0,1,1.29.2,1.72,1.72,0,0,1,.83.67,3,3,0,0,1,.45,1.18,9.81,9.81,0,0,1,.13,1.76V78h3V70.72a10.57,10.57,0,0,0-.26-2.4,4.58,4.58,0,0,0-.89-1.87,4.06,4.06,0,0,0-1.68-1.2,7,7,0,0,0-2.63-.44,18.84,18.84,0,0,0-3,.23,19.15,19.15,0,0,0-2.24.46ZM840,65a11.07,11.07,0,0,0-1.65.4l.37,2.41a8.34,8.34,0,0,1,1.4-.35,12.13,12.13,0,0,1,1.89-.14,3.58,3.58,0,0,1,1.27.19,1.93,1.93,0,0,1,.81.56,1.9,1.9,0,0,1,.43.82,3.93,3.93,0,0,1,.12,1v.5a9.1,9.1,0,0,0-1.15-.21,9.43,9.43,0,0,0-1-.06,10.2,10.2,0,0,0-2,.2,5,5,0,0,0-1.71.69,3.5,3.5,0,0,0-1.17,1.25,3.71,3.71,0,0,0-.43,1.86,4.38,4.38,0,0,0,.38,2,3.31,3.31,0,0,0,1.06,1.28,4.41,4.41,0,0,0,1.63.71,9.33,9.33,0,0,0,2.12.22,21,21,0,0,0,3.13-.21c.93-.13,1.62-.25,2.08-.35v-7.8a7.55,7.55,0,0,0-.26-2.08,3.74,3.74,0,0,0-.86-1.61,3.93,3.93,0,0,0-1.61-1,7.16,7.16,0,0,0-2.48-.37A13,13,0,0,0,840,65m.76,10.5a1.87,1.87,0,0,1-.42-2.37,1.67,1.67,0,0,1,.65-.55,3.22,3.22,0,0,1,.91-.27,6.82,6.82,0,0,1,1-.07,6.5,6.5,0,0,1,1,.07,5.54,5.54,0,0,1,.71.15v3.29a10.84,10.84,0,0,1-2.09.15,3.42,3.42,0,0,1-1.79-.4M824.06,78h3V67.57l.91-.12a9.68,9.68,0,0,1,1.18-.07,3.5,3.5,0,0,1,1.29.2,1.79,1.79,0,0,1,.84.67,3.13,3.13,0,0,1,.44,1.18,9.81,9.81,0,0,1,.13,1.76V78h3V70.72a10.57,10.57,0,0,0-.26-2.4,4.7,4.7,0,0,0-.88-1.87,4.09,4.09,0,0,0-1.69-1.2,6.91,6.91,0,0,0-2.63-.44,18.93,18.93,0,0,0-3.05.23,19.6,19.6,0,0,0-2.24.46ZM809,60.26a5.54,5.54,0,0,0-1.31,3.92V78h3V67.57h4.72V65.09h-4.72v-.87a3.48,3.48,0,0,1,.55-2,2.34,2.34,0,0,1,2-.78,5.71,5.71,0,0,1,1,.09,7.09,7.09,0,0,1,.82.23l.47-2.41a6.94,6.94,0,0,0-2.61-.45,5.19,5.19,0,0,0-4,1.4M820.37,60a1.94,1.94,0,0,0-2.58,0,1.74,1.74,0,0,0-.54,1.35,1.71,1.71,0,0,0,.54,1.33,1.94,1.94,0,0,0,2.58,0,1.71,1.71,0,0,0,.54-1.33,1.74,1.74,0,0,0-.54-1.35m.2,5.12h-3V78h3Zm-19.32,9.49a2.91,2.91,0,0,1-4.6,0,5.11,5.11,0,0,1-.83-3.07,5,5,0,0,1,.83-3,2.92,2.92,0,0,1,4.6,0,5,5,0,0,1,.82,3,5.11,5.11,0,0,1-.82,3.07m3.42-5.84a6.45,6.45,0,0,0-1.27-2.13,5.49,5.49,0,0,0-1.95-1.36,6.44,6.44,0,0,0-2.5-.48,6.35,6.35,0,0,0-2.49.48,5.67,5.67,0,0,0-2,1.36,6.15,6.15,0,0,0-1.28,2.13,8.09,8.09,0,0,0-.46,2.77,8.23,8.23,0,0,0,.46,2.78,6.33,6.33,0,0,0,1.27,2.14,5.73,5.73,0,0,0,1.94,1.38,6.35,6.35,0,0,0,2.51.49,6.43,6.43,0,0,0,2.52-.49,5.71,5.71,0,0,0,2-1.38,6.14,6.14,0,0,0,1.25-2.14,8.23,8.23,0,0,0,.44-2.78,8.09,8.09,0,0,0-.45-2.77m-14.85-3.22a7,7,0,0,0-2-2.71,8.07,8.07,0,0,0-3-1.57,14.08,14.08,0,0,0-3.91-.51c-.69,0-1.48,0-2.36.08a15.05,15.05,0,0,0-2.51.34V77.71a15,15,0,0,0,2.48.35q1.31.09,2.34.09a14,14,0,0,0,4-.53,8.12,8.12,0,0,0,3-1.62,7.22,7.22,0,0,0,2-2.73,9.88,9.88,0,0,0,.69-3.85,10,10,0,0,0-.69-3.9m-10.67-2a17.42,17.42,0,0,1,2-.08,5.39,5.39,0,0,1,6.15,6,6.14,6.14,0,0,1-1.54,4.44,6.25,6.25,0,0,1-4.66,1.58h-1.21l-.71,0Z" transform="translate(0 0)"></path></g><g><rect class="eeb2d078-84f7-4c5b-bef2-f20cd69179d1" height="85.04" width="127.56" x="1035.42" y="42.52"></rect><g><polygon class="af0d8335-220a-47db-9e38-895dbc2f1fd8" points="1099.2 52.65 1100.24 55.86 1103.61 55.86 1100.88 57.84 1101.92 61.04 1099.2 59.06 1096.48 61.04 1097.52 57.84 1094.79 55.86 1098.16 55.86 1099.2 52.65"></polygon><polygon class="af0d8335-220a-47db-9e38-895dbc2f1fd8" points="1099.2 108.76 1100.24 111.96 1103.61 111.96 1100.88 113.94 1101.92 117.14 1099.2 115.16 1096.48 117.14 1097.52 113.94 1094.79 111.96 1098.16 111.96 1099.2 108.76"></polygon><polygon class="af0d8335-220a-47db-9e38-895dbc2f1fd8" points="1071.36 80.57 1072.4 83.78 1075.77 83.78 1073.05 85.76 1074.09 88.96 1071.36 86.98 1068.64 88.96 1069.68 85.76 1066.96 83.78 1070.32 83.78 1071.36 80.57"></polygon><polygon class="af0d8335-220a-47db-9e38-895dbc2f1fd8" points="1127.04 80.57 1128.08 83.78 1131.44 83.78 1128.72 85.76 1129.76 88.96 1127.04 86.98 1124.31 88.96 1125.35 85.76 1122.63 83.78 1125.99 83.78 1127.04 80.57"></polygon><polygon class="af0d8335-220a-47db-9e38-895dbc2f1fd8" points="1113.06 56.51 1114.1 59.71 1117.47 59.71 1114.74 61.69 1115.79 64.89 1113.06 62.91 1110.34 64.89 1111.38 61.69 1108.65 59.71 1112.02 59.71 1113.06 56.51"></polygon><polygon class="af0d8335-220a-47db-9e38-895dbc2f1fd8" points="1085.34 56.51 1086.38 59.71 1089.75 59.71 1087.02 61.69 1088.06 64.89 1085.34 62.91 1082.62 64.89 1083.65 61.69 1080.93 59.71 1084.3 59.71 1085.34 56.51"></polygon><polygon class="af0d8335-220a-47db-9e38-895dbc2f1fd8" points="1113.06 104.67 1114.1 107.87 1117.47 107.87 1114.74 109.85 1115.79 113.05 1113.06 111.07 1110.34 113.05 1111.38 109.85 1108.65 107.87 1112.02 107.87 1113.06 104.67"></polygon><polygon class="af0d8335-220a-47db-9e38-895dbc2f1fd8" points="1085.34 104.67 1086.38 107.87 1089.75 107.87 1087.02 109.85 1088.06 113.05 1085.34 111.07 1082.62 113.05 1083.65 109.85 1080.93 107.87 1084.3 107.87 1085.34 104.67"></polygon><polygon class="af0d8335-220a-47db-9e38-895dbc2f1fd8" points="1123.27 66.57 1124.31 69.77 1127.67 69.77 1124.95 71.75 1125.99 74.95 1123.27 72.97 1120.54 74.95 1121.58 71.75 1118.86 69.77 1122.22 69.77 1123.27 66.57"></polygon><polygon class="af0d8335-220a-47db-9e38-895dbc2f1fd8" points="1075.13 66.57 1076.17 69.77 1079.54 69.77 1076.82 71.75 1077.86 74.95 1075.13 72.97 1072.41 74.95 1073.45 71.75 1070.72 69.77 1074.09 69.77 1075.13 66.57"></polygon><polygon class="af0d8335-220a-47db-9e38-895dbc2f1fd8" points="1123.27 94.43 1124.31 97.64 1127.67 97.64 1124.95 99.62 1125.99 102.82 1123.27 100.84 1120.54 102.82 1121.58 99.62 1118.86 97.64 1122.22 97.64 1123.27 94.43"></polygon><polygon class="af0d8335-220a-47db-9e38-895dbc2f1fd8" points="1075.13 94.43 1076.17 97.64 1079.54 97.64 1076.82 99.62 1077.86 102.82 1075.13 100.84 1072.41 102.82 1073.45 99.62 1070.72 97.64 1074.09 97.64 1075.13 94.43"></polygon></g></g></g></svg>